<?xml version="1.0" standalone="no"?>
<!DOCTYPE svg PUBLIC "-//W3C//DTD SVG 20010904//EN" "http://www.w3.org/TR/2001/REC-SVG-20010904/DTD/svg10.dtd">
<!-- Created using Krita: https://krita.org -->
<svg xmlns="http://www.w3.org/2000/svg" 
    xmlns:xlink="http://www.w3.org/1999/xlink"
    xmlns:krita="http://krita.org/namespaces/svg/krita"
    xmlns:sodipodi="http://sodipodi.sourceforge.net/DTD/sodipodi-0.dtd"
    width="87.48pt"
    height="87.48pt"
    viewBox="0 0 87.48 87.48">
<defs/>
<path id="shape0" transform="translate(4.15293749553346, 29.1588749686392)" fill="#1e1e2e" fill-rule="evenodd" stroke="#1e1e2e" stroke-width="0.576" stroke-linecap="square" stroke-linejoin="bevel" d="M18.0231 7.77712L18.0706 7.776L18.0706 7.632L17.998 7.488L17.9257 7.416L17.7812 7.2L17.5643 6.984L17.4918 6.84L17.2749 6.48L17.0581 6.048L16.9135 5.832L16.6244 5.4L16.263 4.896L16.1182 4.608L15.6845 4.104L15.3228 3.528L15.0339 3.24L14.6 2.664L14.0217 2.088L13.7326 1.872L13.1541 1.296L12.4312 0.864L12.0698 0.72L11.3467 0.36L10.5517 0.144L10.118 0.072L9.25087 0L8.4555 0L8.02181 0.072L7.15444 0.36L6.28706 0.792L5.92566 1.07972L5.13028 1.79972L4.26291 2.66372L3.8295 3.09572L3.03441 4.17572L2.23931 5.39972L1.87819 5.97572L1.22766 7.34372L0.721969 8.85572L0.505406 9.64772L0.216281 11.2317L0 12.9597L0.00028125 13.8237L0.217406 15.6957L0.579375 17.5677L0.868781 18.4317L1.59187 20.3037L2.53209 22.0317L3.11034 22.8957L4.26684 24.4077L5.42362 25.704L6.00187 26.208L7.23037 27L8.31459 27.504L8.82084 27.648L9.90478 27.72L10.9167 27.648L11.4227 27.576L12.4346 27.216L13.4463 26.712L13.8802 26.424L14.8196 25.704L15.253 25.272L16.0481 24.336L16.7707 23.328L17.3489 22.104L17.6377 21.528L18.0714 20.232L18.5048 18.936L18.6494 18.288L18.8662 16.92L19.0828 15.696L19.1548 15.048L19.1548 13.896L19.1031 13.3211"/><path id="shape1" transform="translate(21.8886455714453, 32.0735688031437)" fill="#1e1e2e" fill-rule="evenodd" stroke="#1e1e2e" stroke-width="0.576" stroke-linecap="square" stroke-linejoin="bevel" d="M0.287354 4.86243L0.0511106 5.49826L0 5.49826L0 5.44735L0 5.39644L0 5.19279L0.000198874 4.98915L0.10242 4.7855L0.20484 4.48003L0.307061 4.32729L0.613725 3.81818L0.818565 3.36017L1.12543 2.90197L1.53431 2.44376L1.73895 2.1892L2.50581 1.52735L3.06803 1.12006L3.68155 0.763675L4.03913 0.560029L4.70376 0.30547L5.41931 0.101823L6.54394 0L6.95283 0L7.7706 0.0509117L8.58836 0.30547L9.40613 0.661852L9.81502 0.91641L10.5817 1.42553L11.3483 2.03647L12.1148 2.69832L12.4726 3.0547L13.1368 3.81838L13.4433 4.17476L13.9546 4.93863L14.4144 5.6514L14.8231 6.36416L14.9766 6.72054L15.4362 7.68786L15.6406 8.2988L15.8449 8.85883L15.8962 9.06248L16.0493 9.52068L16.0915 9.82675"/><path id="shape2" transform="translate(18.5318550226109, 33.550007966115)" fill="#1e1e2e" fill-rule="evenodd" stroke="#1e1e2e" stroke-width="0.576" stroke-linecap="square" stroke-linejoin="bevel" d="M1.12006 1.12085L1.21432 1.17077L1.26543 1.17077L1.31654 1.17077L1.41877 1.17077L1.47008 1.17077L1.62341 1.11986L1.82785 0.967123L1.93027 0.916212L2.33935 0.661653L2.69713 0.508918L3.0553 0.356382L3.31065 0.254558L3.77085 0.152735L4.28195 0.0509117L4.79306 0L5.04861 0L5.55972 0L6.07082 0L6.32637 0.0509117L6.99061 0.356382L7.3993 0.61094L7.70616 0.967322L7.9102 1.17097L8.16576 1.57826L8.3702 1.98556L8.47222 2.1892L8.57444 2.5965L8.62536 3.10561L8.62536 3.41108L8.57405 3.71655L8.42071 3.97111L8.3694 4.12385L8.01163 4.48023L7.75588 4.68388L7.44902 4.93843L7.24457 5.09117L7.04013 5.19299L6.63125 5.44755L6.42661 5.60029L5.66015 5.95667L5.14884 6.21123L4.63774 6.36396L4.38199 6.46578L4.07532 6.5167L3.25735 6.56741L2.95069 6.56741L2.08181 6.31285L1.77535 6.16012L1.00869 5.75282L0.753334 5.54918L0.548892 5.34553L0.191317 4.98915L0 4.73558"/><path id="shape3" transform="translate(35.2800016482429, 35.5668766616454)" fill="#1e1e2e" fill-rule="evenodd" stroke="#1e1e2e" stroke-width="0.576" stroke-linecap="square" stroke-linejoin="bevel" d="M0 1.15313L0.0689063 1.22372L0.0689063 1.15172L0.0691875 1.15172L0.21375 1.00772L0.286031 1.00772L0.358313 0.935719L0.575438 0.791719L0.792563 0.648L1.08169 0.504L1.22625 0.432L1.58794 0.288L2.02163 0.216L2.45531 0.072L2.67216 0L3.39497 0L3.82894 0L4.33491 0L4.84059 0.072L5.05744 0.144L5.63541 0.504L5.92453 0.792L6.21338 1.152L6.35794 1.584L6.42994 1.728L6.50222 2.16L6.50222 2.664L6.50222 2.88L6.50222 3.672L6.50222 4.248L6.50222 4.896L6.50222 5.112L6.50194 5.688L6.35766 6.12L6.35766 6.48L6.35738 6.624L6.28538 6.84L6.28538 6.984L6.264 6.98513"/><path id="shape4" transform="translate(40.4640018904337, 34.774876624644)" fill="#1e1e2e" fill-rule="evenodd" stroke="#1e1e2e" stroke-width="0.576" stroke-linecap="square" stroke-linejoin="bevel" d="M0 1.44113L0.0171563 1.512L0.0174375 1.44L0.161719 1.368L0.162281 1.368L0.378844 1.224L0.595969 1.008L0.740531 0.936L1.24678 0.648L1.68075 0.432L2.259 0.288L2.54813 0.216L3.12666 0.072L3.84947 0L4.57228 0L4.93369 0L6.813 0.36L7.46353 0.792L8.11378 1.296L8.40291 1.656L9.19772 2.736L9.63141 3.528L9.99253 4.32L10.1371 4.68L10.4259 5.544L10.5705 6.336L10.7148 7.488L10.7148 8.208L10.7148 8.856L10.7148 9.144L10.7148 9.648L10.656 10.0091"/><path id="shape5" transform="translate(46.1520000498427, 29.8068750321905)" fill="#1e1e2e" fill-rule="evenodd" stroke="#1e1e2e" stroke-width="0.576" stroke-linecap="square" stroke-linejoin="bevel" d="M1.872 11.2331L1.86947 11.0877L1.79719 10.7277L1.65263 10.2237L1.58063 10.0077L1.50834 9.50372L1.50834 8.63972L1.50891 7.91972L1.72575 7.12772L1.87031 6.76772L2.16 5.904L2.59397 5.112L2.88309 4.752L3.82303 3.528L4.54613 2.808L5.48578 2.088L6.426 1.44L7.00425 1.152L8.16103 0.576L10.1126 0.072L11.414 0L12.787 0.072L13.4378 0.216L14.8112 0.576L16.7625 1.656L18.0636 2.52L19.2918 3.6L19.798 4.176L20.81 5.32828L21.7491 6.62428L22.1105 7.27228L22.7607 8.56828L23.4833 10.7283L23.7718 12.2403L23.8438 13.7523L23.8435 14.5443L23.5538 16.8483L23.1199 18.2883L22.5413 19.6563L21.8183 20.9523L21.3846 21.6003L20.0827 23.256L18.9259 24.192L17.6248 25.056L16.974 25.416L15.5281 25.992L14.0102 26.424L12.3477 26.64L10.685 26.712L9.0225 26.64L7.28775 26.424L5.62528 25.992L3.96338 25.416L3.24028 25.056L1.86722 24.2637L0.638719 23.3997L0 22.8971"/><path id="shape6" transform="translate(58.1414063127909, 21.2391562729376)" fill="#1e1e2e" fill-rule="evenodd" stroke="#1e1e2e" stroke-width="0.576" stroke-linecap="square" stroke-linejoin="bevel" d="M2.05059 12.0968L1.95103 12.0957L1.66191 11.8797L1.51734 11.7357L1.15594 11.3757L0.794531 11.0157L0.649969 10.7997L0.361125 10.2237L0.144281 9.50372L0 8.78372L0 8.35172L0.0725625 6.91172L0.289688 5.90372L0.651375 4.96772L0.868219 4.46372L1.37475 3.59972L2.09756 2.73572L2.96522 2.01572L3.39919 1.72772L5.06194 0.863719L6.21872 0.431719L7.51978 0.143719L8.17031 0.0717188L9.39938 0L10.7004 0.072L11.3507 0.216L12.5072 0.576L13.6634 1.152L14.1694 1.512L15.1088 2.232L15.9033 3.168L16.4815 4.176L16.7704 4.68L17.2035 6.408L17.2755 7.56L17.2029 8.712L16.9133 9.792L16.6961 10.368L16.0453 11.52L15.1774 12.6L14.6714 13.104L13.5869 14.184L11.7073 15.696L10.406 16.488L9.10463 17.2077L7.73156 17.7837L6.37059 18.1448"/><path id="shape7" transform="translate(6.64087505159369, 49.1754378820494)" fill="#1e1e2e" fill-rule="evenodd" stroke="#1e1e2e" stroke-width="0.576" stroke-linecap="square" stroke-linejoin="bevel" d="M10.7831 0.108563L10.6248 0.108L10.227 0.036L9.75698 0L9.46786 0L8.88947 0L8.27508 0.072L7.94981 0.144L7.29914 0.288L6.61261 0.504L5.92594 0.756L5.60067 0.936L4.62459 1.51186L3.93792 2.01586L3.25139 2.59186L2.92613 2.91586L2.27573 3.63586L1.69763 4.39186L1.4445 4.78786L0.938813 5.65186L0.541406 6.55186L0.360844 7.01986L0.108141 8.02786L0 9.07186L0.0364219 10.1519L0.108844 10.6919L0.579234 12.3119L1.12177 13.3919L1.84486 14.3639L2.27869 14.8319L3.21848 15.6239L4.23042 16.2719L4.70053 16.524L5.74861 16.92L6.83269 17.1L7.3388 17.136L8.42302 17.064L9.47109 16.884L10.519 16.596L11.5308 16.236L12.4343 15.732L13.3016 15.192L14.0604 14.5801L14.4217 14.2201L15.0359 13.5361L15.5777 12.7801L15.7944 12.3841L16.1556 11.5561L16.3724 10.6921L16.4805 10.2601L16.5165 9.36014L16.4801 8.42414L16.2991 7.52414L16.0097 6.62414L15.576 5.72414L15.1061 4.89614L14.5638 4.10414L14.3106 3.78L13.66 3.132L13.0094 2.592L12.648 2.376L11.9251 1.98L11.1431 1.65656"/><path id="shape8" transform="translate(23.8320002460521, 37.1520003835736)" fill="#1e1e2e" fill-rule="evenodd" stroke="#1e1e2e" stroke-width="0.576" stroke-linecap="square" stroke-linejoin="bevel" d="M0 1.224L0.02475 1.29488L0.0970313 1.29488L0.0970313 1.36688L0.0970313 1.43888L0.169313 1.58288L0.169594 1.72688L0.241594 1.94288L0.314156 2.30288L0.386438 2.51888L0.458719 3.02288L0.675563 3.59888L0.748125 3.95888L1.03725 4.67888L1.32666 5.47088L1.5435 5.90288L1.97747 6.76688L2.55572 7.63088L2.84513 8.06288L3.20681 8.42288L4.86956 9.86288L5.80922 10.2949L6.82088 10.5109L7.25484 10.5109L8.26678 10.5109L9.27872 10.2949L9.78469 10.1509L10.7243 9.71888L11.6637 9.28688L12.0251 9.07116L12.8199 8.49516L13.4705 7.99116L13.7593 7.63116L14.3373 6.69516L14.6261 5.97516L14.6981 5.18316L14.6978 4.31916L14.6256 3.88716L14.4084 2.87916L14.1193 2.01516L13.9748 1.51116L13.6133 0.719156L13.32 0"/><path id="shape9" transform="translate(22.320000008654, 43.4160000168335)" fill="#1e1e2e" fill-rule="evenodd" stroke="#1e1e2e" stroke-width="0.576" stroke-linecap="square" stroke-linejoin="bevel" d="M0 12.6L0.138656 12.6706L0.210938 12.5986L0.283219 12.5266L0.427781 12.5266L0.500063 12.4546L0.934313 12.3106L1.29572 12.1666L1.65741 12.0229L2.09138 11.9509L2.3805 11.8789L2.95875 11.7349L3.97069 11.5909L4.69378 11.5189L5.41659 11.3749L5.778 11.3029L6.78994 11.0869L7.36791 10.8709L7.87359 10.6549L8.09016 10.5109L8.37928 10.1509L8.59584 9.79088L8.74013 9.35888L8.74013 9.07088L8.73984 8.49488L8.66756 8.20688L8.52272 7.55888L8.30588 6.91088L8.01675 6.11888L7.87219 5.68688L7.4385 4.31888L7.14938 3.38288L6.86025 2.51888L6.64341 1.79888L6.49913 1.51088L6.28228 0.790875L6.21 0.574875L6.13772 0.358875L5.976 0"/><path id="shape10" transform="translate(18.9888750073625, 42.0468750163026)" fill="#1e1e2e" fill-rule="evenodd" stroke="#1e1e2e" stroke-width="0.576" stroke-linecap="square" stroke-linejoin="bevel" d="M4.77113 12.8171L4.84284 12.8877L4.77056 12.8877L4.77028 12.9597L4.698 12.9597L4.626 13.0317L4.55372 13.0317L4.48144 13.1757L4.48116 13.1757L4.33688 13.3197L4.26431 13.3917L4.11975 13.4637L4.04747 13.5357L3.90291 13.6797L3.68606 13.8237L3.5415 13.8957L3.46922 13.8957L3.39694 13.9677L3.10781 14.0397L3.03553 14.1117L2.81869 14.1837L2.60184 14.1837L2.52928 14.1837L2.31244 14.1837L2.09559 14.1837L1.95131 14.1117L1.73419 13.9677L1.58963 13.8237L1.37278 13.5357L1.08366 13.1757L0.794813 12.8157L0.72225 12.5997L0.505688 12.0957L0.288844 11.5917L0.216563 11.3037L0.144281 10.6557L0 10.0077L0 9.64772L0 8.92772L0 8.13572L0.00028125 7.34372L0.0722813 6.98372L0.289406 5.83172L0.506531 5.11172L0.867938 4.39172L1.01278 4.03172L1.51875 3.31172L2.025 2.66372L2.31413 2.37572L2.96466 1.79972L3.61547 1.29572L3.97688 1.07972L4.62797 0.72L5.42278 0.432L5.78419 0.288L6.507 0.144L6.86841 0.072L7.51894 0L8.16919 0L8.67516 0.144L8.964 0.216L9.32541 0.432L9.68653 0.648L9.83081 0.792L9.97538 1.08L10.1197 1.44L10.1197 1.584L10.1197 1.872L10.1197 2.088L10.1194 2.304L10.0471 2.376L9.95513 2.37713"/><path id="shape11" transform="translate(33.480000012981, 40.7520000158006)" fill="#1e1e2e" fill-rule="evenodd" stroke="#1e1e2e" stroke-width="0.576" stroke-linecap="square" stroke-linejoin="bevel" d="M0 5.616L0.0376875 5.75888L0.0376875 5.90288L0.0376875 5.97488L0.0376875 6.11888L0.109969 6.26288L0.11025 6.40688L0.18225 6.62288L0.254531 6.83888L0.326813 7.19888L0.327094 7.41488L0.471656 8.13488L0.543938 8.78288L0.688219 9.43088L0.760781 10.2229L0.833063 11.0149L0.977625 11.8069L1.04991 12.5989L1.19447 13.3909L1.26647 13.7509L1.33903 14.4709L1.48331 15.1909L1.55588 15.7669L1.62816 15.9829L1.77272 16.4869L1.91728 16.8469L1.98984 16.9909L2.20641 17.2069L2.27897 17.3509L2.42353 17.4949L2.71266 17.6389L3.00178 17.7829L3.29119 17.8549L3.72488 17.8549L3.94172 17.8549L4.37569 17.8549L4.95366 17.8549L5.45991 17.7829L5.74903 17.7109L6.68869 17.4949L7.33922 17.2789L7.98975 17.1349L8.56856 16.9192L9.21881 16.7032L9.79706 16.4152L10.303 16.1272L10.8087 15.8392L11.0253 15.6952L11.3867 15.4072L11.6758 15.1912L11.8927 14.9032L12.0369 14.7592L12.2538 14.3272L12.3258 14.0392L12.3258 13.6792L12.3258 13.4632L12.3258 13.2472L12.3258 12.7432L12.3255 12.4552L12.1087 11.5912L11.8918 10.8712L11.6747 10.1512L11.5301 9.71916L11.2407 8.78316L10.8793 7.70316L10.6628 7.12716L10.1568 5.39916L9.79538 4.24716L9.50625 3.16716L9.21713 2.23116L8.92828 1.36716L8.78316 0.718875L8.49431 0.286875L8.352 0"/><path id="shape12" transform="translate(41.8320000162193, 39.8871562654653)" fill="#1e1e2e" fill-rule="evenodd" stroke="#1e1e2e" stroke-width="0.576" stroke-linecap="square" stroke-linejoin="bevel" d="M3.024 12.5288L3.03413 12.6L3.03441 12.6L3.10641 12.6L3.25125 12.6L3.39581 12.6L3.46809 12.6L3.68494 12.6L3.82978 12.528L3.97434 12.456L4.26347 12.384L4.55259 12.384L4.69716 12.384L4.98656 12.312L5.34769 12.312L5.49225 12.312L5.85366 12.24L6.1425 12.24L6.21506 12.168L6.50391 12.168L6.72075 12.096L6.79303 12.096L6.93731 12.024L7.00959 12.024L7.00959 11.952L7.00959 11.88L7.00959 11.808L7.00959 11.736L7.00959 11.592L7.00959 11.448L7.00959 11.376L7.00959 10.944L7.00959 10.584L7.00959 10.08L7.00959 9.864L7.00959 9.216L7.00959 8.496L7.00959 8.136L7.00959 7.272L6.93731 6.48L6.93703 6.048L6.79275 5.184L6.72019 4.392L6.64819 4.032L6.57563 3.384L6.50334 2.808L6.43106 2.52L6.2865 2.016L6.14194 1.656L6.06966 1.512L5.85281 1.224L5.70825 0.936L5.63569 0.864L5.41884 0.648L5.202 0.504L4.91288 0.36L4.76831 0.288L4.26206 0.144L3.90066 0.072L3.68381 0.072L3.25013 0L2.81644 0L2.38275 0L1.94934 0L1.58766 0.072L1.37109 0.072L0.865125 0.288L0.576 0.432L0 0.864844"/><path id="shape13" transform="translate(45.6643139819422, 44.7828764533369)" fill="#1e1e2e" fill-rule="evenodd" stroke="#1e1e2e" stroke-width="0.72" stroke-linecap="square" stroke-linejoin="bevel" d="M12.4397 0.721125L12.5041 0.648L12.2873 0.504L12.1427 0.36L11.8536 0.216L11.4919 0.072L10.9856 0L10.6968 0L10.1903 0L9.54 0L8.88919 0.072L8.16638 0.216L7.44356 0.432L6.64847 0.792L5.85338 1.152L5.49169 1.44L4.62459 2.016L3.82922 2.664L3.39581 2.952L2.67272 3.744L1.95019 4.536L1.58906 4.968L1.01081 5.976L0.505406 7.056L0.144281 8.28L0.072 8.928L0 10.224L0.0728438 11.52L0.651656 13.536L1.30275 14.76L1.73672 15.336L3.32719 16.848L4.55625 17.64L5.92959 18.144L6.58041 18.288L8.02603 18.504L9.47166 18.432L10.9173 18.144L11.6401 17.928L13.0132 17.424L14.8925 16.4163L15.9764 15.6243L16.9158 14.6883L17.3489 14.1843L18.2157 12.5283L18.5046 11.3043L18.5766 10.0083L18.5763 9.36028L18.4314 7.99228L18.0698 6.62428L17.5635 5.32828L17.2744 4.68028L16.1899 3.09628L15.3945 2.30428L14.5988 1.728L14.0929 1.512L13.0809 1.224L12.0687 1.152L11.4317 1.08113"/><path id="shape14" transform="translate(48.6278453281175, 36.0720011706432)" fill="#1e1e2e" fill-rule="evenodd" stroke="#1e1e2e" stroke-width="0.72" stroke-linecap="square" stroke-linejoin="bevel" d="M2.70816 0L2.67384 0.142875L2.38444 0.286875L2.02303 0.502875L1.58934 0.718875L1.3725 0.862875L0.79425 1.51088L0.433125 2.08688L0.144 2.66288L0 3.38288L0 3.74288L0.0725625 4.75088L0.289969 5.32688L0.9405 5.83088L1.44675 5.97488L2.025 5.97488L2.31441 5.90288L2.96494 5.68688L3.61547 5.32688L3.97659 5.18288L4.48256 4.67888L4.98797 4.24688L5.27681 3.74288L5.34909 3.52688L5.42109 2.73488L5.34853 2.23088L5.20369 1.65488L5.05913 1.36688L4.77 0.862875L4.58016 0.576"/><path id="shape15" transform="translate(71.7345686528109, 31.5646500534183)" fill="#1e1e2e" fill-rule="evenodd" stroke="#1e1e2e" stroke-width="0.72" stroke-linecap="square" stroke-linejoin="bevel" d="M1.52735 1.42612L1.56991 1.47624L1.62082 1.42533L1.62082 1.37442L1.62102 1.37442L1.72304 1.27259L1.77435 1.17077L1.82546 1.11986L1.97879 1.01803L2.13232 0.8653L2.23474 0.814388L2.4903 0.610741L2.79696 0.458006L2.95029 0.407095L3.25715 0.25436L3.61513 0.152735L3.81957 0.101823L4.22865 0L4.73976 0L4.99531 0L5.50662 0.101823L6.06883 0.254558L6.3755 0.356382L6.68236 0.509117L7.03993 0.661852L8.57325 1.731L9.18638 2.29103L9.44213 2.5965L10.0039 3.25835L10.4639 3.97111L10.6684 4.37841L11.026 5.14208L11.2813 5.90576L11.3835 6.26214L11.5367 7.02581L11.5876 7.68766L11.5874 8.34952L11.5361 8.65499L11.2292 9.5714L11.0759 9.82596L10.9223 10.0805L10.4622 10.6405L9.64419 11.3024L9.03066 11.7606L8.67289 11.9642L7.90623 12.3206L7.13937 12.5752L6.3214 12.7788L5.86161 12.8297L5.04364 12.8807L3.76587 12.8295L2.9481 12.6259L2.18145 12.3713L1.77276 12.2186L1.0063 11.8622L0 11.1503"/><path id="shape16" transform="translate(70.1354245719655, 32.888155072449)" fill="#1e1e2e" fill-rule="evenodd" stroke="#1e1e2e" stroke-width="0.72" stroke-linecap="square" stroke-linejoin="bevel" d="M3.12649 0.102619L3.42421 0.254558L3.32179 0.152735L3.16846 0.101823L3.06624 0.0509117L2.86179 0L2.65735 0L2.45291 0L2.35069 0L1.99291 0L1.78827 0L1.53292 0.101823L1.4307 0.152735L1.17515 0.30547L0.970504 0.509117L0.71515 0.814587L0.612929 0.967322L0.306266 1.62917L0.102022 2.1892L0 2.80014L0 3.15652L0.000198874 3.81838L0.102619 4.53114L0.20484 4.83661L0.460592 5.34573L0.971896 5.95667L1.38098 6.16031L1.89209 6.26214L2.14784 6.26214L2.71005 6.21123L3.27207 6.00758L3.52782 5.85484L4.29428 5.34573L4.54964 5.14208L4.95852 4.68388L5.16276 4.48023L5.52054 3.76766L5.72478 3.25855L5.827 2.80034L5.87791 2.54578L5.87791 2.13849L5.8266 1.7312L5.77529 1.57846L5.62196 1.27299L5.46863 1.01843L5.41732 0.91641L5.05955 0.712764L4.95733 0.661852L4.70177 0.61094L4.59935 0.61094L4.19564 0.560824"/><path id="shape17" transform="translate(66.3379297051899, 40.6275271717126)" fill="#1e1e2e" fill-rule="evenodd" stroke="#1e1e2e" stroke-width="0.72" stroke-linecap="square" stroke-linejoin="bevel" d="M0 8.40043L0.0664238 8.45054L0.0664238 8.50146L0.0664238 8.55237L0.0664238 8.60328L0.0664238 8.75601L0.0664238 8.80693L0.0664238 9.1124L0.0664238 9.26513L0.0664238 9.36696L0.117534 9.67243L0.117733 9.82516L0.219756 10.1815L0.271065 10.5379L0.373087 10.9452L0.373485 11.1998L0.526618 11.6071L0.629038 12.0653L0.73106 12.2689L0.884392 12.7271L1.03792 13.1344L1.14014 13.3381L1.44681 13.8472L1.54923 14.0508L1.70236 14.1527L1.95811 14.4581L2.46922 14.7127L2.82719 14.8654L3.03163 14.9163L3.49163 15.0182L3.95182 15.0182L4.46293 15.0182L4.71868 15.0182L5.28089 14.9672L6.14977 14.8654L6.7629 14.7127L7.01865 14.6109L7.63178 14.3563L8.194 14.1527L8.7051 13.8981L8.90974 13.7456L9.62509 13.3383L10.0338 13.0837L10.3402 12.7782L10.5447 12.4728L10.6469 12.32L10.8 11.9127L10.9021 11.4545L10.9021 11.2L10.9019 10.3345L10.8508 9.97809L10.7996 9.67262L10.6461 8.90895L10.3906 7.63616L10.1861 6.77066L9.98167 5.90516L9.87945 5.44695L9.67501 4.63237L9.47057 3.86869L9.36815 3.51231L9.16351 2.85026L8.85684 2.29023L8.70351 1.98476L8.34574 1.42473L8.19241 1.17017L7.88574 0.711968L7.57928 0.355586L7.28037 0"/><path id="shape18" transform="translate(10.9439999379071, 42.1559997608197)" fill="#cdd6f4" fill-rule="evenodd" stroke="#cdd6f4" stroke-width="0.504" stroke-linecap="square" stroke-linejoin="bevel" d="M0 0.792L3.492 0L6.444 0.18L0.468 2.7L0 0.792"/><path id="shape19" transform="translate(12.8159999272859, 36.1799997947257)" fill="#cdd6f4" fill-rule="evenodd" stroke="#cdd6f4" stroke-width="0.504" stroke-linecap="square" stroke-linejoin="bevel" d="M1.62 5.76L1.44 4.968L1.152 4.356L0.828 3.924L0.432 3.6L0 3.24L3.672 0L4.5 2.376L4.752 3.708L4.752 4.752L4.644 5.724L4.644 6.084L2.556 6.264L1.62 5.76"/><path id="shape20" transform="translate(9.72413289896996, 33.5762599312601)" fill="#cdd6f4" fill-rule="evenodd" stroke="#cdd6f4" stroke-width="0.504" stroke-linecap="square" stroke-linejoin="bevel" d="M6.69489 2.36739L6.13486 1.27279L5.60029 0.661852L4.76024 0.152735L3.84383 0L2.85105 0.0254558L1.88373 0.534573L0.890955 1.17097L0 2.31648L1.731 5.90576L2.49467 5.57483L3.00379 5.60029L3.2838 5.90576L6.7458 2.74923L6.69489 2.36739"/><path id="shape21" transform="translate(7.68766527614902, 36.1473003050716)" fill="#cdd6f4" fill-rule="evenodd" stroke="#cdd6f4" stroke-width="0.504" stroke-linecap="square" stroke-linejoin="bevel" d="M1.88373 0.0509117L1.24734 0.992778L0.560029 2.31648L0.254558 4.25113L0 6.5167L3.08016 6.89853L2.95288 5.72757L3.0547 4.48023L3.61473 3.71655L4.04748 3.33472L2.13829 0L1.88373 0.0509117"/><path id="shape22" transform="translate(7.9676795742869, 42.8676434603806)" fill="#cdd6f4" fill-rule="evenodd" stroke="#cdd6f4" stroke-width="0.504" stroke-linecap="square" stroke-linejoin="bevel" d="M0 0L2.80014 0.178191L3.43654 2.34194L0.356382 3.00379L0 0.872357L0 0"/><path id="shape23" transform="translate(8.34951683554598, 45.2095789632002)" fill="#cdd6f4" fill-rule="evenodd" stroke="#cdd6f4" stroke-width="0.504" stroke-linecap="square" stroke-linejoin="bevel" d="M2.97833 0L3.46199 1.01823L3.79292 1.60372L4.58205 2.24011L5.06571 2.44376L3.94566 5.70211L2.13829 4.70933L1.29825 3.51291L0.560029 2.1892L0.152735 1.22188L0 0.560029L2.97833 0"/><path id="shape24" transform="translate(12.1678934371676, 45.9987101275353)" fill="#cdd6f4" fill-rule="evenodd" stroke="#cdd6f4" stroke-width="0.504" stroke-linecap="square" stroke-linejoin="bevel" d="M1.17097 1.78191L2.08738 1.75645L3.23289 1.40007L4.07294 0.865499L4.68388 0L6.13486 0.967322L6.26214 1.04369L5.75302 2.13829L5.37118 2.77469L4.25113 4.07294L2.46922 5.0148L1.37462 5.09117L0.30547 4.88752L0 4.83661L1.17097 1.78191"/><path id="shape25" transform="translate(24.7680007705367, 35.3880011009267)" fill="#cdd6f4" fill-rule="evenodd" stroke="#cdd6f4" stroke-width="0.504" stroke-linecap="square" stroke-linejoin="bevel" d="M0 2.376L0.864 1.224L2.088 0.36L3.132 0L3.996 0.144L2.556 3.888L1.512 3.96L0.9 4.716L0.468 5.76L0 2.376"/><path id="shape26" transform="translate(27.4680008545341, 35.6040011076464)" fill="#cdd6f4" fill-rule="evenodd" stroke="#cdd6f4" stroke-width="0.504" stroke-linecap="square" stroke-linejoin="bevel" d="M0 3.564L0.828 4.248L1.8 5.364L3.024 7.308L6.084 5.364L5.58 4.176L4.788 2.52L3.852 1.368L2.88 0.576L1.944 0.036L1.404 0L0.936 0.108L0.684 1.044L0 3.564"/><path id="shape27" transform="translate(20.0880006249411, 36.3240011300458)" fill="#cdd6f4" fill-rule="evenodd" stroke="#cdd6f4" stroke-width="0.504" stroke-linecap="square" stroke-linejoin="bevel" d="M4.464 1.62L3.816 0L0 1.152L3.168 16.632L6.336 15.192L5.472 12.816L5.22 11.34L4.824 9.288L4.86 7.416L5.004 5.652L5.04 4.824L4.788 2.052L4.464 1.62"/><path id="shape28" transform="translate(39.8159999775818, 37.3319999789804)" fill="#cdd6f4" fill-rule="evenodd" stroke="#cdd6f4" stroke-width="0.504" stroke-linecap="square" stroke-linejoin="bevel" d="M0 2.268L0.612 1.296L1.476 0.792L2.412 0.252L3.276 0L2.736 3.852L1.656 3.852L1.224 4.104L0.684 5.076L0 2.268"/><path id="shape29" transform="translate(42.5159999760616, 37.4039999789399)" fill="#cdd6f4" fill-rule="evenodd" stroke="#cdd6f4" stroke-width="0.504" stroke-linecap="square" stroke-linejoin="bevel" d="M0 3.888L1.224 4.536L1.692 5.4L5.184 3.528L4.14 1.944L3.276 0.936L2.196 0.252L1.224 0L0.18 0.18L0 3.888"/><path id="shape30" transform="translate(43.74, 41.3999999766899)" fill="#cdd6f4" fill-rule="evenodd" stroke="#cdd6f4" stroke-width="0.504" stroke-linecap="square" stroke-linejoin="bevel" d="M0 0.108L0 0.54L0.396 0.72L0.684 0.36L0 0L0 0.108"/><path id="shape31" transform="translate(44.2079999751089, 40.9319999769534)" fill="#cdd6f4" fill-rule="evenodd" stroke="#cdd6f4" stroke-width="0.504" stroke-linecap="square" stroke-linejoin="bevel" d="M0 1.872L1.152 3.672L4.14 2.124L4.068 1.008L3.456 0L0 1.872"/><path id="shape32" transform="translate(35.0781520254956, 38.285588277464)" fill="#cdd6f4" fill-rule="evenodd" stroke="#cdd6f4" stroke-width="0.504" stroke-linecap="square" stroke-linejoin="bevel" d="M0 0.992778L3.94566 0L5.19299 2.87651L5.39664 4.22567L4.88752 5.8803L1.42553 7.71312L0 0.992778"/><path id="shape33" transform="translate(36.5400024808486, 43.74)" fill="#cdd6f4" fill-rule="evenodd" stroke="#cdd6f4" stroke-width="0.504" stroke-linecap="square" stroke-linejoin="bevel" d="M3.37476 0.756814L3.50204 3.17512L3.70569 5.56797L4.44391 8.57176L4.90211 9.94637L1.836 11.196L0 2.124L3.312 0L3.37476 0.756814"/><path id="shape34" transform="translate(59.3884854730051, 37.1146214400521)" fill="#cdd6f4" fill-rule="evenodd" stroke="#cdd6f4" stroke-width="0.504" stroke-linecap="square" stroke-linejoin="bevel" d="M0 2.97833L0.560029 4.07294L0.585484 4.70933L0.509117 5.26936L5.75302 6.62538L5.80393 4.27658L5.67665 3.20744L5.26936 2.06192L4.65842 0.61094L4.20021 0L0 2.97833"/><path id="shape35" transform="translate(54.2464048619691, 34.1617434653977)" fill="#cdd6f4" fill-rule="evenodd" stroke="#cdd6f4" stroke-width="0.504" stroke-linecap="square" stroke-linejoin="bevel" d="M1.85828 5.39664L2.90197 4.93843L3.71655 5.0148L4.60751 5.57483L5.19299 5.98212L9.26593 2.87651L8.42588 1.90919L7.10218 0.865499L5.14208 0.0254558L2.90197 0L0.865499 0.483661L0 1.17097L1.85828 5.39664"/><path id="shape36" transform="translate(50.7844109291568, 35.3072571221757)" fill="#cdd6f4" fill-rule="evenodd" stroke="#cdd6f4" stroke-width="0.504" stroke-linecap="square" stroke-linejoin="bevel" d="M5.19299 4.30204L4.65842 4.93843L4.20021 5.54937L4.02202 6.49124L4.20021 7.30583L0.0763675 8.7059L0.0254558 7.63675L0 6.87308L0 5.90576L0.127279 5.26936L0.254558 4.5566L0.458205 3.9202L0.890955 2.90197L1.22188 2.24011L2.08738 1.24734L2.69832 0.509117L3.46199 0L5.19299 4.30204"/><path id="shape37" transform="translate(50.9880576897749, 42.7912755748935)" fill="#cdd6f4" fill-rule="evenodd" stroke="#cdd6f4" stroke-width="0.504" stroke-linecap="square" stroke-linejoin="bevel" d="M0 0.948724L3.89474 0L4.25113 0.509117L4.70933 0.948724L5.47301 1.52735L1.9601 5.44755L1.04369 4.17476L0.483661 3.0547L0.0763675 1.98556L0 0.948724"/><path id="shape38" transform="translate(52.9920002409871, 42.4348937438117)" fill="#cdd6f4" fill-rule="evenodd" stroke="#cdd6f4" stroke-width="0.504" stroke-linecap="square" stroke-linejoin="bevel" d="M3.26542 1.88373L3.97818 2.13829L4.79277 2.11284L5.45462 1.85828L6.11647 1.30511L6.62559 0.992778L7.26199 0L12.168 1.30511L11.7 2.85311L11.196 4.11311L10.296 5.48111L9 6.88511L7.2 7.67711L5.112 8.10911L3.348 7.85711L1.512 7.10111L0.576 6.48911L0 5.76911L3.26542 1.88373"/><path id="shape39" transform="translate(66.8880038238597, 35.1720020107163)" fill="#cdd6f4" fill-rule="evenodd" stroke="#cdd6f4" stroke-width="0.504" stroke-linecap="square" stroke-linejoin="bevel" d="M0 1.152L3.348 16.668L6.552 15.408L5.292 12.204L4.932 8.568L4.824 5.832L5.328 4.572L4.392 1.26L3.96 0L0 1.152"/><path id="shape40" transform="translate(70.9560040564195, 34.4160019674972)" fill="#cdd6f4" fill-rule="evenodd" stroke="#cdd6f4" stroke-width="0.504" stroke-linecap="square" stroke-linejoin="bevel" d="M1.332 4.968L1.872 3.96L2.772 3.672L3.708 4.068L4.464 4.68L5.04 5.364L5.796 6.444L6.192 7.2L7.524 6.732L9.36 5.364L8.424 3.132L6.948 1.224L5.688 0.288L4.248 0L2.844 0.324L1.872 0.864L1.152 1.548L0.576 2.304L0.324 2.7L0 3.672L1.332 4.968"/><path id="shape41" transform="translate(10.8720003135425, 55.8000016092411)" fill="#142a4e" fill-rule="evenodd" stroke="#142a4e" stroke-width="0.504" stroke-linecap="square" stroke-linejoin="bevel" d="M0 1.404L1.044 3.78L5.904 2.484L5.526 0L0 1.404"/><path id="shape42" transform="translate(62.468643081856, 24.79399281244)" fill="#ffb471" fill-rule="evenodd" stroke="#ffb471" stroke-width="0.504" stroke-linecap="square" stroke-linejoin="bevel" d="M1.98556 0.712764L2.16375 2.36739L3.2838 1.24734L4.42932 0.254558L5.54937 0L5.39664 1.40007L5.42209 2.77469L5.75302 2.92742L6.69489 2.11284L7.25492 1.78191L7.53493 2.62195L7.17855 4.53114L6.61852 6.38942L5.77848 7.25492L5.26936 7.63675L4.22567 7.76403L3.08016 7.78949L1.62917 7.07672L0.560029 6.18577L0 4.48023L0.178191 3.18198L0.814587 2.03647L1.37462 1.0946L1.98556 0.712764"/><path id="shape43" transform="translate(62.9777599773886, 29.4778682513403)" fill="#ffe2a7" fill-rule="evenodd" stroke="#ffe2a7" stroke-width="0.504" stroke-linecap="square" stroke-linejoin="bevel" d="M0 1.12006L0.509117 0.458205L1.45098 0.0254558L1.68009 0.814587L1.88373 1.29825L2.24011 1.47644L2.52013 1.65463L3.10561 1.55281L3.38563 1.34916L3.66564 0.967322L3.84383 0.661852L4.1493 0.30547L4.37841 0.0509117L4.60751 0L4.91298 0.61094L5.11662 1.3237L5.19299 2.03647L5.29482 2.67286L4.76024 2.97833L3.76747 3.20744L2.92742 3.10561L1.93464 2.80014L1.12006 2.24011L0.407294 1.62917L0 1.12006"/><path id="shape44" transform="translate(9.72000015399156, 54.4500008626379)" fill="#89b4fa" fill-rule="evenodd" stroke="#89b4fa" stroke-width="0.576" stroke-linecap="square" stroke-linejoin="bevel" d="M0 2.016L1.548 6.372L2.178 6.282L0.612 2.448L6.732 0.792L7.308 0L0 2.016"/><path id="shape45" transform="translate(11.9880001899229, 54.5580008643489)" fill="#89b4fa" fill-rule="evenodd" stroke="#89b4fa" stroke-width="0.576" stroke-linecap="square" stroke-linejoin="bevel" d="M5.13 0L4.734 0.882L5.292 3.978L0 5.454L0.036 5.976L5.922 4.392L5.13 0"/><path id="shape46" transform="translate(10.7820001708166, 59.3121187606785)" fill="#89b4fa" fill-rule="evenodd" stroke="#89b4fa" stroke-width="0.576" stroke-linecap="square" stroke-linejoin="bevel" d="M0.54 1.65388L0 3.32788L8.43716 1.12006L7.31711 0L0.54 1.65388"/><path id="shape47" transform="translate(7.69359409661256, 33.3714389455445)" fill="none" stroke="#585b70" stroke-width="0.72" stroke-linecap="square" stroke-linejoin="bevel" d="M9.98241 9.14456L10.0111 9.144L10.0111 9.108L10.0111 9.036L10.0111 8.928L10.0111 8.856L10.0111 8.568L10.0111 8.316L10.0472 8.028L10.0472 7.884L10.0472 7.56L10.0472 7.2L10.0472 7.02L10.0472 6.624L9.97481 6.228L9.93867 6.012L9.86639 5.58L9.79397 5.148L9.68555 4.716L9.61327 4.5L9.39642 3.816L9.21572 3.384L9.07102 2.916L8.96273 2.7L8.81803 2.268L8.60119 1.872L8.49277 1.656L8.27578 1.296L8.0228 0.972L7.87823 0.828L7.58911 0.576L7.29984 0.36L6.97458 0.18L6.79388 0.144L6.28777 0L5.89036 0L5.52895 0.036L5.34811 0.072L4.9507 0.216L4.55316 0.324L4.37245 0.432L3.97491 0.612L3.61336 0.828L3.39666 0.936L3.03525 1.224L2.70984 1.54786L2.34844 1.94386L2.16788 2.12386L1.69805 2.80786L1.40892 3.27586L1.1198 3.77986L0.975375 4.06786L0.758531 4.60786L0.541688 5.18386L0.433406 5.50786L0.288844 6.11986L0.144422 6.73186L0.108281 7.05586L0.036 7.73986L0 8.38786L0 8.74786L0.000140625 9.43186L0.0362813 9.79186L0.108563 10.5119L0.217125 11.2319L0.361828 11.9519L0.470109 12.3119L0.650953 12.9599L0.904078 13.6439L1.04864 13.9679L1.37391 14.5799L1.69931 15.1559L1.88016 15.4439L2.31384 15.9839L2.71153 16.452L3.14536 16.848L3.39834 17.028L4.12116 17.46L4.62713 17.676L5.13295 17.82L5.34994 17.892L5.85591 17.928L6.36188 17.892L6.61486 17.856L7.12083 17.712L7.6268 17.496L7.87964 17.388L8.34947 17.064L8.78316 16.704L9 16.524L9.43355 16.056L9.61439 15.84L10.0118 15.336L10.3732 14.796L10.6983 14.292L10.8429 14.04L11.0624 13.5366"/><path id="shape48" transform="translate(11.5200004958006, 42.4800018282648)" fill="#585b70" fill-rule="evenodd" stroke="#585b70" stroke-width="0.72" stroke-linecap="square" stroke-linejoin="bevel" d="M6.12 0L0 2.592"/><path id="shape49" transform="translate(11.5200004958006, 45.0720019398199)" fill="none" stroke="#585b70" stroke-width="0.72" stroke-linecap="square" stroke-linejoin="bevel" d="M0 0L0.013187 0.0862667L0.013187 0.111723L0.013187 0.137178L0.013187 0.162634L0.013187 0.18809L0.013187 0.239002L0.013187 0.264458L0.0132865 0.366281L0.0642976 0.468104L0.0899523 0.569928L0.115508 0.646295L0.166718 0.79903L0.243383 0.951765L0.294494 1.02813L0.396815 1.23178L0.550146 1.46088L0.626812 1.56271L0.805798 1.79181L1.0358 1.99545L1.13812 2.09728L1.39377 2.27547L1.67488 2.4282L1.82821 2.47912L2.13487 2.55548L2.44163 2.58094L2.77375 2.58094L2.92719 2.55548L3.41264 2.4282L3.56597 2.37729L3.7192 2.32638L4.00031 2.17365L4.12808 2.09728L4.38364 1.91909L4.61354 1.7409L4.71576 1.63907L4.9201 1.40997L5.07333 1.18087L5.12444 1.07904L5.20449 0.824884"/><path id="shape50" transform="translate(16.7754014460893, 45.9096153384249)" fill="#585b70" fill-rule="evenodd" stroke="#585b70" stroke-width="0.72" stroke-linecap="square" stroke-linejoin="bevel" d="M0 0L1.97283 0.98005"/><path id="shape51" transform="translate(10.6191567341652, 39.2757205407202)" fill="none" stroke="#585b70" stroke-width="0.72" stroke-linecap="square" stroke-linejoin="bevel" d="M0.324844 3.65428L0.325266 3.672L0.289125 3.636L0.234914 3.6L0.216703 3.54593L0.180633 3.50993L0.144492 3.43793L0.126352 3.38393L0.0722109 3.27593L0.0361406 3.13193L0.018 2.95193L0 2.84393L0 2.48393L0.000140625 2.21393L0.0543516 1.94393L0.126703 1.65593L0.162914 1.512L0.361758 1.116L0.506391 0.846L0.669023 0.612L0.759375 0.504L0.940078 0.324L1.12071 0.18L1.28341 0.072L1.37377 0.036L1.62675 0L1.80745 0L1.98816 0.054L2.16893 0.144L2.27728 0.216L2.45805 0.36L2.65676 0.54L2.74711 0.648L2.92774 0.864L3.16266 1.224L3.28908 1.44L3.3975 1.674L3.45164 1.782L3.55999 2.088L3.6142 2.286L3.65034 2.448L3.66834 2.52L3.65484 2.62828"/><path id="shape52" transform="translate(10.944000498976, 42.0840019187598)" fill="#585b70" fill-rule="evenodd" stroke="#585b70" stroke-width="0.72" stroke-linecap="square" stroke-linejoin="bevel" d="M0 0.738L3.24 0"/><path id="shape53" transform="translate(25.066640359802, 39.3630722047079)" fill="none" stroke="#585b70" stroke-width="0.72" stroke-linecap="square" stroke-linejoin="bevel" d="M5.48474 3.79332L5.49448 3.81848L5.49448 3.79302L5.49439 3.74211L5.44327 3.6912L5.41772 3.66574L5.39206 3.61483L5.28984 3.46209L5.23873 3.41118L5.0854 3.18208L4.98308 3.00389L4.82975 2.80024L4.75308 2.69842L4.59975 2.44386L4.42086 2.1893L4.3441 2.03657L4.13966 1.75655L3.93521 1.50199L3.83289 1.34926L3.6029 1.0947L3.3729 0.840142L3.1429 0.636496L3.04068 0.534573L2.70836 0.280014L2.47837 0.152735L2.24847 0.0763675L2.04393 0.0254558L1.91625 0L1.63514 0L1.4307 0.0763675L1.25191 0.178191L1.07302 0.30547L0.996358 0.381838L0.843026 0.560029L0.689694 0.789131L0.613128 0.91641L0.408686 1.37462L0.306464 1.78191L0.204243 2.24011L0.102122 2.74923L0.0765664 3.02925L0.0254558 3.66564L0 4.32749L0 4.68388L0.0513094 5.80393L0.127975 6.59306L0.230296 7.38219L0.358072 8.14587L0.434738 8.52771L0.664736 9.5714L0.818067 10.1823L0.971399 10.7424L1.15029 11.2515L1.22695 11.4806L1.45695 12.0406L1.59 12.321"/><path id="shape54" transform="translate(24.6412578755209, 35.3832266811154)" fill="none" stroke="#585b70" stroke-width="0.72" stroke-linecap="square" stroke-linejoin="bevel" d="M0 2.72417L0.00169043 2.74923L0.00169043 2.72378L0.00169043 2.67286L0.0273451 2.57104L0.0784557 2.46922L0.129566 2.34194L0.155221 2.26557L0.282997 2.03647L0.410774 1.85828L0.538749 1.68009L0.640871 1.57826L0.819857 1.40007L1.04985 1.19642L1.15227 1.06915L1.43328 0.865499L1.71449 0.661852L2.02115 0.483661L2.17459 0.407294L2.68569 0.203647L3.04347 0.101823L3.40124 0.0254558L3.75901 0L3.9379 0L4.47466 0.0509117L4.85799 0.152735L5.26687 0.330926L5.67566 0.560029L5.85465 0.687308L6.44252 1.17107L6.82575 1.55291L7.18342 1.98566L7.33675 2.1893L7.64332 2.64751L7.89887 3.10571L8.02665 3.33482L8.25644 3.76756L8.43523 4.20031L8.48644 4.3785L8.61412 4.73489L8.71624 5.04036L8.79291 5.29492L8.84392 5.47311L8.85863 5.60068"/><path id="shape55" transform="translate(30.4451895513259, 41.2002836863052)" fill="#585b70" fill-rule="evenodd" stroke="#585b70" stroke-width="0.72" stroke-linecap="square" stroke-linejoin="bevel" d="M3.00379 0L0 1.80736"/><path id="shape56" transform="translate(19.9440007463631, 36.180001353962)" fill="none" stroke="#585b70" stroke-width="0.72" stroke-linecap="square" stroke-linejoin="bevel" d="M4.644 1.62L4.14 0L0 1.08L3.27173 17.0227L6.732 15.525L6.732 15.525"/><path id="shape57" transform="translate(24.6330002045784, 37.6740003128847)" fill="none" stroke="#585b70" stroke-width="0.72" stroke-linecap="square" stroke-linejoin="bevel" d="M0 0L0.018 0.207"/><path id="shape58" transform="translate(40.042640359802, 41.3070722047079)" fill="none" stroke="#585b70" stroke-width="0.72" stroke-linecap="square" stroke-linejoin="bevel" d="M5.48474 3.79332L5.49448 3.81848L5.49448 3.79302L5.49439 3.74211L5.44327 3.6912L5.41772 3.66574L5.39206 3.61483L5.28984 3.46209L5.23873 3.41118L5.0854 3.18208L4.98308 3.00389L4.82975 2.80024L4.75308 2.69842L4.59975 2.44386L4.42086 2.1893L4.3441 2.03657L4.13966 1.75655L3.93521 1.50199L3.83289 1.34926L3.6029 1.0947L3.3729 0.840142L3.1429 0.636496L3.04068 0.534573L2.70836 0.280014L2.47837 0.152735L2.24847 0.0763675L2.04393 0.0254558L1.91625 0L1.63514 0L1.4307 0.0763675L1.25191 0.178191L1.07302 0.30547L0.996358 0.381838L0.843026 0.560029L0.689694 0.789131L0.613128 0.91641L0.408686 1.37462L0.306464 1.78191L0.204243 2.24011L0.102122 2.74923L0.0765664 3.02925L0.0254558 3.66564L0 4.32749L0 4.68388L0.0513094 5.80393L0.127975 6.59306L0.230296 7.38219L0.358072 8.14587L0.434738 8.52771L0.664736 9.5714L0.818067 10.1823L0.971399 10.7424L1.15029 11.2515L1.22695 11.4806L1.45695 12.0406L1.59 12.321"/><path id="shape59" transform="translate(39.6172578755209, 37.3272266811154)" fill="none" stroke="#585b70" stroke-width="0.72" stroke-linecap="square" stroke-linejoin="bevel" d="M0 2.72417L0.00169043 2.74923L0.00169043 2.72378L0.00169043 2.67286L0.0273451 2.57104L0.0784557 2.46922L0.129566 2.34194L0.155221 2.26557L0.282997 2.03647L0.410774 1.85828L0.538749 1.68009L0.640871 1.57826L0.819857 1.40007L1.04985 1.19642L1.15227 1.06915L1.43328 0.865499L1.71449 0.661852L2.02115 0.483661L2.17459 0.407294L2.68569 0.203647L3.04347 0.101823L3.40124 0.0254558L3.75901 0L3.9379 0L4.47466 0.0509117L4.85799 0.152735L5.26687 0.330926L5.67566 0.560029L5.85465 0.687308L6.44252 1.17107L6.82575 1.55291L7.18342 1.98566L7.33675 2.1893L7.64332 2.64751L7.89887 3.10571L8.02665 3.33482L8.25644 3.76756L8.43523 4.20031L8.48644 4.3785L8.61412 4.73489L8.71624 5.04036L8.79291 5.29492L8.84392 5.47311L8.85863 5.60068"/><path id="shape60" transform="translate(45.4211895513259, 43.1442836863052)" fill="#585b70" fill-rule="evenodd" stroke="#585b70" stroke-width="0.72" stroke-linecap="square" stroke-linejoin="bevel" d="M3.00379 0L0 1.80736"/><path id="shape61" transform="translate(34.9200007463631, 38.124001353962)" fill="none" stroke="#585b70" stroke-width="0.72" stroke-linecap="square" stroke-linejoin="bevel" d="M4.644 1.62L4.14 0L0 1.08L3.27173 17.0227L6.732 15.525L6.732 15.525"/><path id="shape62" transform="translate(39.6090002045784, 39.6180003128847)" fill="none" stroke="#585b70" stroke-width="0.72" stroke-linecap="square" stroke-linejoin="bevel" d="M0 0L0.018 0.207"/><path id="shape63" transform="translate(71.866640359802, 38.2830722047079)" fill="none" stroke="#585b70" stroke-width="0.72" stroke-linecap="square" stroke-linejoin="bevel" d="M5.48474 3.79332L5.49448 3.81848L5.49448 3.79302L5.49439 3.74211L5.44327 3.6912L5.41772 3.66574L5.39206 3.61483L5.28984 3.46209L5.23873 3.41118L5.0854 3.18208L4.98308 3.00389L4.82975 2.80024L4.75308 2.69842L4.59975 2.44386L4.42086 2.1893L4.3441 2.03657L4.13966 1.75655L3.93521 1.50199L3.83289 1.34926L3.6029 1.0947L3.3729 0.840142L3.1429 0.636496L3.04068 0.534573L2.70836 0.280014L2.47837 0.152735L2.24847 0.0763675L2.04393 0.0254558L1.91625 0L1.63514 0L1.4307 0.0763675L1.25191 0.178191L1.07302 0.30547L0.996358 0.381838L0.843026 0.560029L0.689694 0.789131L0.613128 0.91641L0.408686 1.37462L0.306464 1.78191L0.204243 2.24011L0.102122 2.74923L0.0765664 3.02925L0.0254558 3.66564L0 4.32749L0 4.68388L0.0513094 5.80393L0.127975 6.59306L0.230296 7.38219L0.358072 8.14587L0.434738 8.52771L0.664736 9.5714L0.818067 10.1823L0.971399 10.7424L1.15029 11.2515L1.22695 11.4806L1.45695 12.0406L1.59 12.321"/><path id="shape64" transform="translate(71.4412578755209, 34.3032266811154)" fill="none" stroke="#585b70" stroke-width="0.72" stroke-linecap="square" stroke-linejoin="bevel" d="M0 2.72417L0.00169043 2.74923L0.00169043 2.72378L0.00169043 2.67286L0.0273451 2.57104L0.0784557 2.46922L0.129566 2.34194L0.155221 2.26557L0.282997 2.03647L0.410774 1.85828L0.538749 1.68009L0.640871 1.57826L0.819857 1.40007L1.04985 1.19642L1.15227 1.06915L1.43328 0.865499L1.71449 0.661852L2.02115 0.483661L2.17459 0.407294L2.68569 0.203647L3.04347 0.101823L3.40124 0.0254558L3.75901 0L3.9379 0L4.47466 0.0509117L4.85799 0.152735L5.26687 0.330926L5.67566 0.560029L5.85465 0.687308L6.44252 1.17107L6.82575 1.55291L7.18342 1.98566L7.33675 2.1893L7.64332 2.64751L7.89887 3.10571L8.02665 3.33482L8.25644 3.76756L8.43523 4.20031L8.48644 4.3785L8.61412 4.73489L8.71624 5.04036L8.79291 5.29492L8.84392 5.47311L8.85863 5.60068"/><path id="shape65" transform="translate(77.245189551326, 40.1202836863052)" fill="#585b70" fill-rule="evenodd" stroke="#585b70" stroke-width="0.72" stroke-linecap="square" stroke-linejoin="bevel" d="M3.00379 0L0 1.80736"/><path id="shape66" transform="translate(66.7440007463632, 35.100001353962)" fill="none" stroke="#585b70" stroke-width="0.72" stroke-linecap="square" stroke-linejoin="bevel" d="M4.644 1.62L4.14 0L0 1.08L3.27173 17.0227L6.732 15.525L6.732 15.525"/><path id="shape67" transform="translate(71.4330002045785, 36.5940003128847)" fill="none" stroke="#585b70" stroke-width="0.72" stroke-linecap="square" stroke-linejoin="bevel" d="M0 0L0.018 0.207"/><ellipse id="shape68" transform="translate(50.688, 33.912)" rx="7.344" ry="8.388" cx="7.344" cy="8.388" fill="none" stroke="#585b70" stroke-width="0.72" stroke-linecap="square" stroke-linejoin="bevel"/><ellipse id="shape69" transform="translate(54.936, 39.24)" rx="2.484" ry="2.628" cx="2.484" cy="2.628" fill="none" stroke="#585b70" stroke-width="0.72" stroke-linecap="square" stroke-linejoin="bevel"/><path id="shape70" transform="translate(9.44411815221756, 54.2209478820038)" fill="none" stroke="#585b70" stroke-width="0.72" stroke-linecap="square" stroke-linejoin="bevel" d="M0 2.06192L7.76403 0L8.68044 4.91298L10.6405 6.26214L0.840043 8.90955L1.75645 6.94945L0 2.06192"/><path id="shape71" transform="translate(11.2260272375416, 59.2102933209112)" fill="none" stroke="#585b70" stroke-width="0.72" stroke-linecap="square" stroke-linejoin="bevel" d="M0 1.80736L6.7458 0L6.7458 0L6.7458 0"/><path id="shape72" transform="translate(10.6405428237923, 55.4937400858067)" fill="none" stroke="#142a4e" stroke-width="0.72" stroke-linecap="square" stroke-linejoin="bevel" d="M0 1.50189L5.82939 0L6.36396 2.87651L1.14551 4.32749L0 1.50189"/><path id="shape73" transform="translate(63.00321299764, 29.0701756840815)" fill="none" stroke="#e58c3c" stroke-width="0.72" stroke-linecap="square" stroke-linejoin="bevel" d="M0 1.65503L0.000397748 1.68009L0.000397748 1.65463L0.000397748 1.60372L0.000397748 1.57826L0.0260525 1.50189L0.0516077 1.45098L0.102818 1.34916L0.230594 1.17097L0.332815 1.04369L0.435036 0.890955L0.486246 0.840043L0.614023 0.712764L0.690689 0.636396L0.818465 0.534573L0.971697 0.432749L1.09947 0.356382L1.15068 0.330926L1.27836 0.280014L1.38058 0.229103L1.43159 0.229103L1.53381 0.229103L1.58492 0.229103L1.63604 0.229103L1.68705 0.229103L1.68715 0.229103L1.7127 0.254558L1.73826 0.280014L1.76371 0.30547L1.78927 0.330926L1.81482 0.432749L1.81492 0.509117L1.84038 0.585484L1.84038 0.636396L1.84038 0.763675L1.84038 0.865499L1.84048 0.941866L1.86593 1.0946L1.86603 1.24734L1.89149 1.3237L1.89159 1.45098L1.9427 1.60372L1.96825 1.65463L2.01936 1.75645L2.14714 1.85828L2.22401 1.90919L2.35168 1.9601L2.40289 1.9601L2.55612 1.9601L2.76057 1.93464L2.88844 1.88373L3.04168 1.80736L3.09289 1.75645L3.32278 1.57826L3.45056 1.45098L3.57834 1.29825L3.62945 1.22188L3.73167 1.06915L3.83389 0.941866L3.91055 0.814587L3.96167 0.738219L4.08934 0.585484L4.16601 0.483661L4.24267 0.381838L4.29378 0.280014L4.31934 0.254558L4.39601 0.152735L4.44702 0.101823L4.47267 0.0763675L4.49813 0.0509117L4.52368 0.0254558L4.54924 0.0254558L4.57479 0L4.57489 0L4.60035 0L4.6259 0L4.65146 0L4.67701 0.0509117L4.67711 0.0509117L4.70267 0.0763675L4.72822 0.127279L4.75378 0.152735L4.80489 0.254558L4.83045 0.356382L4.88156 0.483661L4.93267 0.61094L4.95822 0.687308L5.03489 0.91641L5.0861 1.0946L5.16266 1.29825L5.21377 1.50189L5.23933 1.60372L5.26488 1.78191L5.29044 1.88373L5.316 2.08738L5.36701 2.26557L5.39256 2.41831L5.39266 2.49467L5.44367 2.69832L5.44377 2.80014L5.46923 2.87651L5.46923 2.90197L5.46923 2.92742L5.47301 2.92782"/><path id="shape74" transform="translate(62.4704784143947, 25.2537194986293)" fill="none" stroke="#585b70" stroke-width="0.72" stroke-linecap="square" stroke-linejoin="bevel" d="M2.04152 1.76428L2.04202 1.782L2.04202 1.746L2.04195 1.728L2.02395 1.692L2.02395 1.638L2.02395 1.602L2.02395 1.53L2.02395 1.422L2.02395 1.368L2.02395 1.26L2.02395 1.134L2.02395 0.99L2.02402 0.918L2.04209 0.702L2.06016 0.576L2.07823 0.432L2.09623 0.378L2.1143 0.27L2.11437 0.198L2.13237 0.162L2.13237 0.09L2.13237 0.054L2.13237 0.036L2.13237 0.018L2.13237 0L2.1323 0L2.09616 0L2.06002 0.018L2.02388 0.036L2.0058 0.054L1.96959 0.09L1.93338 0.12593L1.89731 0.12593L1.84303 0.17993L1.77075 0.21593L1.73461 0.23393L1.66233 0.28793L1.57198 0.35993L1.49963 0.43193L1.44541 0.46793L1.28278 0.62993L1.17436 0.77393L1.0478 0.93593L0.921305 1.11593L0.849094 1.22393L0.668391 1.52993L0.541898 1.76393L0.433477 1.97993L0.379336 2.10593L0.288914 2.35793L0.198633 2.60993L0.126352 2.86193L0.0902813 2.98793L0.0360703 3.38393L0 3.65393L0 3.92393L0 4.06793L0.0181406 4.33793L0.0543516 4.62593L0.0904922 4.76993L0.180844 5.03993L0.289336 5.29193L0.343617 5.41793L0.48818 5.66993L0.650883 5.90393L0.831586 6.11993L0.922008 6.22793L1.26541 6.49793L1.50033 6.67793L1.75331 6.83993L1.8618 6.912L2.11479 7.038L2.36784 7.164L2.51234 7.2L2.76532 7.29L3.03638 7.362L3.16287 7.398L3.43392 7.452L3.70505 7.488L3.9941 7.506L4.12066 7.506L4.40972 7.488L4.53621 7.488L4.80727 7.452L5.06018 7.38L5.16867 7.344L5.42159 7.254L5.63843 7.146L5.74685 7.092L5.9637 6.948L6.1624 6.786L6.25282 6.696L6.43345 6.516L6.59609 6.30007L6.74065 6.08407L6.81293 5.95807L6.99356 5.56207L7.10198 5.27407L7.19227 4.96807L7.28262 4.66207L7.31876 4.50007L7.42718 4.05007L7.48139 3.76207L7.57167 3.36607L7.60781 3.11407L7.64388 2.88007L7.64395 2.68207L7.66195 2.57407L7.66195 2.28607L7.66195 2.10607L7.64388 1.94407L7.64381 1.87207L7.60767 1.74607L7.57146 1.62007L7.53539 1.58407L7.49918 1.49407L7.44497 1.40407L7.4089 1.36807L7.35462 1.31407L7.28241 1.26007L7.22813 1.22407L7.19198 1.22407L7.10163 1.18807L7.02935 1.18807L6.99328 1.18807L6.86672 1.22407L6.7583 1.31407L6.72216 1.35007L6.57745 1.512L6.4691 1.62L6.3064 1.818L6.25219 1.872L6.14377 2.016L6.03534 2.142L5.98113 2.196L5.82152 2.34028"/><path id="shape75" transform="translate(64.4902451859075, 24.6028752315921)" fill="none" stroke="#585b70" stroke-width="0.72" stroke-linecap="square" stroke-linejoin="bevel" d="M0.0217567 2.41513L0.140554 2.26552L0.127727 2.26552L0.102221 2.27825L0.102171 2.29098L0.0766161 2.31643L0.0511106 2.34189L0.0382832 2.38007L0.0255553 2.40553L0.0255056 2.43098L0 2.4819L0 2.53281L0 2.57099L0 2.6219L0 2.63463L0 2.69827L4.97184e-05 2.72373L0.0256547 2.72373L0.0639876 2.72373L0.0895429 2.72373L0.178986 2.64736L0.242924 2.58372L0.31964 2.49462L0.370701 2.43098L0.460194 2.31643L0.549737 2.1892L0.664686 2.06192L0.715846 1.99828L0.881956 1.79464L1.00968 1.65463L1.12473 1.50189L1.18862 1.42553L1.3164 1.27279L1.457 1.13279L1.59755 0.98005L1.67422 0.903682L1.91699 0.700036L2.0831 0.572757L2.23648 0.458205L2.40254 0.36911L2.47921 0.318198L2.69638 0.203647L2.82416 0.152735L2.93911 0.101823L2.99027 0.0763675L3.10517 0.0509117L3.19461 0.0254558L3.23294 0.0127279L3.30961 0.0127279L3.3735 0L3.41178 0L3.46289 0L3.514 0.0254558L3.53951 0.0381838L3.57784 0.0636396L3.61617 0.0890955L3.64178 0.127279L3.66728 0.152735L3.70562 0.229103L3.73112 0.292742L3.74395 0.356382L3.75668 0.394566L3.75668 0.470933L3.75668 0.547301L3.75668 0.636396L3.75668 0.687308L3.75668 0.789131L3.75663 0.840043L3.73107 0.954594L3.71829 1.05642L3.69274 1.17097L3.68001 1.22188L3.66723 1.3237L3.66723 1.38734L3.65446 1.48917L3.65446 1.60372L3.65441 1.66736L3.64163 1.78191L3.61612 1.90919L3.61607 1.97283L3.60334 2.10011L3.59052 2.24011L3.57774 2.31648L3.56496 2.45649L3.55218 2.5965L3.53941 2.72378L3.52668 2.77469L3.52668 2.87651L3.52668 2.96561L3.53951 3.04197L3.55228 3.06743L3.60344 3.13107L3.62895 3.1438L3.64178 3.15652L3.71839 3.15652L3.75678 3.13107L3.79516 3.09293L3.82071 3.06748L3.80176 2.99113"/><path id="shape76" transform="translate(63.9000042368979, 26.8740017818841)" fill="none" stroke="#ffb471" stroke-width="0.36" stroke-linecap="square" stroke-linejoin="bevel" d="M0.018 0L0.0239766 0.00885938L0.0239766 0.0268594L0.0239766 0.0628594L0.0239766 0.0718594L0.0239766 0.0988594L0.0239766 0.179859L0.0239414 0.242859L0.0149414 0.323859L0 0.387"/><path id="shape77" transform="translate(48.824308374003, 53.7118303801598)" fill="none" stroke="#585b70" stroke-width="0.72" stroke-linecap="square" stroke-linejoin="bevel" d="M1.93464 0L0 1.98556L2.34194 3.51291"/><path id="shape78" transform="translate(53.7627420677239, 52.1844797532358)" fill="none" stroke="#585b70" stroke-width="0.72" stroke-linecap="square" stroke-linejoin="bevel" d="M1.52735 0L0 6.92399"/><path id="shape79" transform="translate(57.8356770728545, 53.3045368796467)" fill="none" stroke="#585b70" stroke-width="0.72" stroke-linecap="square" stroke-linejoin="bevel" d="M0 0L2.85105 2.08738L0.865499 4.02202"/><path id="shape80" transform="translate(39.3840012509665, 33.1908760542523)" fill="#1e1e2e" fill-rule="evenodd" stroke="#1e1e2e" stroke-width="0.72" stroke-linecap="square" stroke-linejoin="bevel" d="M0 2.66513L0.0405 2.736L0.0405 2.664L0.0410625 2.592L0.257625 2.376L0.330188 2.304L0.619313 2.088L0.981 1.8L1.41469 1.44L1.84866 1.08L2.35463 0.792L2.93316 0.504L3.58341 0.216L3.87281 0.144L4.52334 0L5.17388 0L5.535 0L6.47466 0.144L7.05319 0.432L7.70316 0.72L8.13713 1.22428L8.57081 1.72828L8.93194 2.23228L9.22106 2.73628L9.43763 3.16828L9.50991 3.38428L9.65419 3.67228L9.65419 3.96028L9.648 4.03313"/><path id="shape81" transform="translate(34.2925323392445, 34.6308760999914)" fill="#1e1e2e" fill-rule="evenodd" stroke="#1e1e2e" stroke-width="0.72" stroke-linecap="square" stroke-linejoin="bevel" d="M0.0514688 1.29713L0.0722813 1.296L0 1.296L0.0725625 1.224L0.144844 1.224L0.289406 1.08L0.50625 1.008L0.578813 0.936L0.868219 0.792L1.22963 0.648L1.66359 0.504L1.95244 0.432L2.74753 0.216L3.25378 0.144L3.83175 0.072L4.04888 0L4.55456 0L4.98825 0L5.20509 0L5.6385 0.072L5.92763 0.288L6.07191 0.36L6.28875 0.576L6.43331 0.792L6.50531 1.08L6.50531 1.224L6.50531 1.656L6.50503 1.872L6.36075 2.232L6.36047 2.376L6.21591 2.664L6.07163 2.88L6.02747 2.88113"/><path id="shape82" transform="translate(24.1200007661312, 31.5345947516433)" fill="#1e1e2e" fill-rule="evenodd" stroke="#1e1e2e" stroke-width="0.72" stroke-linecap="square" stroke-linejoin="bevel" d="M0 2.37741L0.125438 2.448L0.197719 2.304L0.27 2.304L0.559125 2.016L0.77625 1.8L1.13766 1.584L1.2825 1.44L2.00531 1.008L2.22244 0.864L3.01753 0.432L3.30694 0.288L3.95719 0.072L4.60772 0L5.18653 0.00028125L5.54794 0.00028125L6.19847 0.144281L6.849 0.360281L7.21013 0.504281L7.78838 0.864281L8.0775 1.00828L8.58319 1.44028L9.01688 1.80028L9.23344 2.01628L9.52256 2.44828L9.81141 2.95228L9.95597 3.31228L10.028 3.52828L10.028 3.88828L10.028 4.17628L10.028 4.32028L10.028 4.60828L10.028 4.68028L10.028 4.75228L10.028 4.68028L10.028 4.60828L10.224 4.39341"/><path id="shape83" transform="translate(19.6519121943072, 33.2625948065303)" fill="#1e1e2e" fill-rule="evenodd" stroke="#1e1e2e" stroke-width="0.72" stroke-linecap="square" stroke-linejoin="bevel" d="M0 1.40827L0.0395259 0.72L0.111807 0.72L0.184088 0.72L0.18437 0.72L0.401495 0.72L0.618338 0.648L0.835182 0.576L0.980026 0.504L1.34143 0.432L1.77512 0.288L2.20909 0.216L2.49821 0.144L3.36559 0.072L4.01612 0L4.59437 0L5.24462 0L5.46174 0L6.25656 0L6.4734 0.072L6.68996 0.144L7.12337 0.36L7.34021 0.504L7.34809 0.649406"/>
</svg>
